<svg xmlns="http://www.w3.org/2000/svg" width="83.296" height="52.06" viewBox="0 0 83.296 52.06">
  <g id="noun_Credit_Card_3021135" data-name="noun_Credit Card_3021135" transform="translate(19 -52)">
    <g id="Group_3" data-name="Group 3" transform="translate(-19 52)">
      <path id="Path_10" data-name="Path 10" d="M60.018,352H44.4a1.735,1.735,0,1,0,0,3.47H60.018a1.735,1.735,0,1,0,0-3.47Z" transform="translate(-35.723 -310.352)"/>
      <path id="Path_11" data-name="Path 11" d="M396.146,309.328H385.734a1.736,1.736,0,0,0,0,3.472h10.412a1.736,1.736,0,1,0,0-3.472Z" transform="translate(-321.528 -274.622)"/>
      <path id="Path_12" data-name="Path 12" d="M75.636,309.328H44.4a1.736,1.736,0,0,0,0,3.472H75.636a1.736,1.736,0,0,0,0-3.472Z" transform="translate(-35.723 -274.622)"/>
      <path id="Path_13" data-name="Path 13" d="M76.357,96H6.941A6.941,6.941,0,0,0,0,102.941v38.177a6.942,6.942,0,0,0,6.941,6.942H76.357a6.941,6.941,0,0,0,6.94-6.942V102.941A6.94,6.94,0,0,0,76.357,96ZM13.563,109.883h4.909l-6.941,6.941H6.622ZM3.471,115.066v-5.183H8.654Zm19.909-5.183h4.909l-6.942,6.941H16.438Zm9.816,0H38.1l-6.941,6.941H26.255Zm9.817,0h4.909l-6.942,6.941H36.071Zm9.815,0h4.911L50.8,116.824H45.888Zm9.817,0h4.909l-6.942,6.941H55.705Zm9.817,0h4.909l-6.942,6.941H65.523Zm7.362,2.453v4.488H75.337ZM6.941,99.471H76.357a3.473,3.473,0,0,1,3.467,3.47v3.471H3.471v-3.471A3.474,3.474,0,0,1,6.941,99.471ZM76.357,144.59H6.941a3.476,3.476,0,0,1-3.47-3.472V120.3H79.824v20.823A3.474,3.474,0,0,1,76.357,144.59Z" transform="translate(0 -96)"/>
    </g>
  </g>
</svg>
