<svg xmlns="http://www.w3.org/2000/svg" width="84" height="84" viewBox="0 0 84 84">
  <g id="noun_dashboard_2819008" transform="translate(-8 -8)">
    <path id="Path_1" data-name="Path 1" d="M41.11,43.11H10a2,2,0,0,1-2-2V10a2,2,0,0,1,2-2H41.11a2,2,0,0,1,2,2V41.11A2,2,0,0,1,41.11,43.11ZM12,39.11H39.11V12H12Z"/>
    <path id="Path_2" data-name="Path 2" d="M90,43.11H58.89a2,2,0,0,1-2-2V10a2,2,0,0,1,2-2H90a2,2,0,0,1,2,2V41.11A2,2,0,0,1,90,43.11Zm-29.11-4H88V12H60.89Z"/>
    <path id="Path_3" data-name="Path 3" d="M90,92H58.89a2,2,0,0,1-2-2V58.89a2,2,0,0,1,2-2H90a2,2,0,0,1,2,2V90A2,2,0,0,1,90,92ZM60.89,88H88V60.89H60.89Z"/>
    <path id="Path_4" data-name="Path 4" d="M41.11,92H10a2,2,0,0,1-2-2V58.89a2,2,0,0,1,2-2H41.11a2,2,0,0,1,2,2V90A2,2,0,0,1,41.11,92ZM12,88H39.11V60.89H12Z"/>
  </g>
</svg>
