<svg xmlns="http://www.w3.org/2000/svg" xmlns:xlink="http://www.w3.org/1999/xlink" width="162" height="74" viewBox="0 0 777 415">
  <defs>
    <clipPath id="clip-path">
      <rect id="Rectangle_3" data-name="Rectangle 3" width="777" height="415" transform="translate(0.358 36)" fill="#dbf8ff" stroke="#707070" stroke-width="1"/>
    </clipPath>
  </defs>
  <g id="Mask_Group_1" data-name="Mask Group 1" transform="translate(-0.358 -36)" clip-path="url(#clip-path)">
    <g id="diamond" transform="translate(151.467 36)">
      <path id="Path_1" data-name="Path 1" d="M5.963,405.714l208.472,258.8-94.561-258.8Z" transform="translate(-3.476 -266.128)" fill="#dbf8ff"/>
      <path id="Path_2" data-name="Path 2" d="M323.7,405.714,424.447,681.449,527.174,405.714Z" transform="translate(-188.721 -266.128)" fill="#dbf8ff"/>
      <path id="Path_3" data-name="Path 3" d="M619.137,671.2,832.983,405.714H718.034Z" transform="translate(-360.964 -266.128)" fill="#dbf8ff"/>
      <path id="Path_4" data-name="Path 4" d="M747.8,70.967H612.944l92.467,113.806Z" transform="translate(-357.353 -70.967)" fill="#dbf8ff"/>
      <path id="Path_5" data-name="Path 5" d="M531.121,200.264,436.037,83.248,340.961,200.264Z" transform="translate(-198.784 -78.127)" fill="#dbf8ff"/>
      <path id="Path_6" data-name="Path 6" d="M336.325,70.967H201.372l41.867,114.574Z" transform="translate(-117.402 -70.967)" fill="#dbf8ff"/>
      <path id="Path_7" data-name="Path 7" d="M69.435,97.453,0,208.547H110.02Z" transform="translate(0 -86.409)" fill="#dbf8ff"/>
      <path id="Path_8" data-name="Path 8" d="M982.837,208.388,913.332,97.181l-41.44,111.207Z" transform="translate(-508.323 -86.25)" fill="#dbf8ff"/>
    </g>
  </g>
</svg>
