<svg id="Capa_1" enable-background="new 0 0 510 510" height="512" viewBox="0 0 510 510" width="512" xmlns="http://www.w3.org/2000/svg"><path d="m509.271 454.933-41.427-128.93c-1.993-6.203-7.764-10.411-14.28-10.411h-67.634l-38.082-118.519c-1.993-6.203-7.764-10.411-14.28-10.411h-157.137c-6.516 0-12.287 4.207-14.28 10.411l-38.082 118.519h-67.634c-6.516 0-12.287 4.207-14.28 10.411l-41.427 128.93c-3.104 9.66 4.106 19.588 14.28 19.588h479.983c10.147 0 17.392-9.902 14.28-19.588zm-321.905-238.272h135.267l31.788 98.931c-11.008 0-187.792 0-198.842 0zm67.633 193.828-20.853-64.899h41.706zm-219.416 34.033 31.788-98.931h135.267l31.788 98.931zm239.991 0 31.788-98.931h135.267l31.788 98.931z"/><path d="m432.282 165.956 34.135-22.919c6.878-4.618 8.71-13.937 4.092-20.814-4.617-6.878-13.937-8.709-20.814-4.092l-34.135 22.919c-6.878 4.618-8.71 13.937-4.092 20.814 4.619 6.881 13.94 8.709 20.814 4.092z"/><path d="m43.582 143.037 34.135 22.919c6.876 4.618 16.196 2.786 20.814-4.092 4.618-6.877 2.786-16.196-4.092-20.814l-34.135-22.919c-6.876-4.618-16.196-2.786-20.814 4.092s-2.786 16.197 4.092 20.814z"/><path d="m254.999 99.256c8.284 0 14.999-6.716 14.999-14.999v-33.778c0-8.284-6.716-14.999-14.999-14.999s-14.999 6.715-14.999 14.999v33.778c0 8.283 6.716 14.999 14.999 14.999z"/></svg>