<?xml version="1.0" encoding="iso-8859-1"?>
<!-- Generator: Adobe Illustrator 19.0.0, SVG Export Plug-In . SVG Version: 6.00 Build 0)  -->
<svg version="1.1"  width="100" height='100'  id="Capa_1" xmlns="http://www.w3.org/2000/svg" xmlns:xlink="http://www.w3.org/1999/xlink" x="0px" y="0px"
	 viewBox="0 0 503.641 503.641" style="enable-background:new 0 0 503.641 503.641;" xml:space="preserve">
<path style="fill:#4DCFE0;" d="M68.441,251.718c3.657,0,7.314-1.045,10.449-3.657l106.58-92.473l67.918,59.037
	c6.269,5.224,15.151,5.224,20.898-0.522l105.535-96.653l26.645,26.645c3.135,3.135,6.792,4.702,10.971,4.702
	c1.567,0,3.135,0,4.702-0.522c5.747-1.567,9.927-6.269,10.971-12.016l17.241-87.771c1.045-5.224-0.522-10.449-4.18-14.106
	c-3.657-3.657-8.882-5.224-14.106-4.18l-88.816,16.718c-5.747,1.045-10.449,5.224-12.016,10.971s0,11.494,3.657,15.673
	l22.465,22.465l-94.041,86.204l-67.918-59.037c-5.747-5.224-14.629-5.224-20.376,0L57.992,224.551
	c-6.792,5.747-7.314,15.673-1.567,21.943C59.559,250.151,63.739,251.718,68.441,251.718z"/>
<path style="fill:#3A2C51;" d="M487.967,442.412h-32.392V252.763c0-8.882-6.792-15.673-15.673-15.673s-15.673,6.792-15.673,15.673
	v189.649h-31.347V195.294c0-8.882-6.792-15.673-15.673-15.673s-15.673,6.792-15.673,15.673v247.118h-31.347V305.008
	c0-8.882-6.792-15.673-15.673-15.673c-8.882,0-15.673,6.792-15.673,15.673v137.404h-31.347v-95.608
	c0-8.882-6.792-15.673-15.673-15.673c-8.882,0-15.673,6.792-15.673,15.673v95.608H204.8V252.763c0-8.882-6.792-15.673-15.673-15.673
	s-15.673,6.792-15.673,15.673v189.649h-31.347V388.6c0-8.882-6.792-15.673-15.673-15.673s-15.673,6.792-15.673,15.673v53.812H79.412
	V341.579c0-8.882-6.792-15.673-15.673-15.673s-15.673,6.792-15.673,15.673v100.833H15.673C6.792,442.412,0,449.204,0,458.085
	s6.792,15.673,15.673,15.673h472.294c8.882,0,15.673-6.792,15.673-15.673S496.849,442.412,487.967,442.412z"/>
<g>
</g>
<g>
</g>
<g>
</g>
<g>
</g>
<g>
</g>
<g>
</g>
<g>
</g>
<g>
</g>
<g>
</g>
<g>
</g>
<g>
</g>
<g>
</g>
<g>
</g>
<g>
</g>
<g>
</g>
</svg>
