<svg xmlns="http://www.w3.org/2000/svg" width="88" height="50" viewBox="0 0 88 50">
  <g id="noun_investment_2998305" transform="translate(-4 -23)">
    <path id="Path_7" data-name="Path 7" d="M24.56,42.91a3.07,3.07,0,0,1-2.87-1.62l-3.38,2.13A7.51,7.51,0,0,0,22,46.5V48h4V46.67a5.316,5.316,0,0,0,4-4.08c.29-2.52-.92-4.24-3.6-5.08-.77-.25-1.43-.43-2-.58-1.42-.38-1.64-.47-1.85-.77a.51.51,0,0,1-.08-.4.91.91,0,0,1,.4-.55,2.13,2.13,0,0,1,1.47,0,3,3,0,0,1,1.9,1.41l3.52-1.9A6.87,6.87,0,0,0,26,31.52V30H22v1.28a4.71,4.71,0,0,0-1.3.55A4.9,4.9,0,0,0,18.52,35a4.5,4.5,0,0,0,.73,3.49c1.07,1.52,2.39,1.88,4.08,2.33.51.14,1.11.3,1.82.53a2.17,2.17,0,0,1,.83.37,1,1,0,0,1,0,.4,2.23,2.23,0,0,1-1.42.79Z"/>
    <path id="Path_8" data-name="Path 8" d="M86,69V30.75a7.75,7.75,0,0,0-2.21-5.46A7.42,7.42,0,0,0,78.41,23H17.59a7.42,7.42,0,0,0-5.38,2.29A7.75,7.75,0,0,0,10,30.75V53h4V30.75a3.85,3.85,0,0,1,1.07-2.68A3.51,3.51,0,0,1,17.59,27H78.41a3.51,3.51,0,0,1,2.52,1.07A3.85,3.85,0,0,1,82,30.75V69H14V59H10V69H4v4H92V69Z"/>
    <path id="Path_9" data-name="Path 9" d="M23.4,63.45l9.13-10.16L44.81,57A2,2,0,0,0,47,56.18L56,43.2l10.39,5.31a2,2,0,0,0,2.51-.57l5.82-7.7-3.19-2.42L66.7,44.19,56.24,38.84a2,2,0,0,0-2.56.65L44.56,52.71,32.46,49.1a2,2,0,0,0-2.06.58l-10,11.09Z"/>
  </g>
</svg>
