<svg xmlns="http://www.w3.org/2000/svg" width="52" height="53" viewBox="0 0 52 53">
  <g id="noun_activity_1288419" transform="translate(-24 -23.5)">
    <g id="Group_2" data-name="Group 2">
      <g id="Group_1" data-name="Group 1">
        <path id="Path_5" data-name="Path 5" d="M76,61.5a6.008,6.008,0,0,1-6.01,6H30.01A6,6,0,1,1,30,55.5s0-12,0-12a20,20,0,0,1,40,0v12A6.009,6.009,0,0,1,76,61.5Zm-6-2a4,4,0,0,1-4-4v-12a16,16,0,0,0-32,0v12a4,4,0,0,1-4,4,2,2,0,1,0,.008,4H69.99a2,2,0,1,0,.008-4Zm-29,8h4a5,5,0,0,0,10,0h4a9,9,0,0,1-18,0Z"/>
      </g>
    </g>
  </g>
</svg>
