<?xml version="1.0" encoding="utf-8"?>
<!-- Generator: Adobe Illustrator 24.0.1, SVG Export Plug-In . SVG Version: 6.00 Build 0)  -->
<svg version="1.1" id="Layer_1" xmlns="http://www.w3.org/2000/svg" xmlns:xlink="http://www.w3.org/1999/xlink" x="0px" y="0px"
	 viewBox="0 0 81 90" style="enable-background:new 0 0 81 90;" xml:space="preserve">
<g>
	<path d="M40.5,2.8c11.2,0,20.3,9.1,20.3,20.3c0,11.2-9.1,20.3-20.3,20.3c-11.2,0-20.3-9.1-20.3-20.3S29.3,2.8,40.5,2.8 M40.5,0
		c-12.7,0-23,10.3-23,23s10.3,23,23,23s23-10.3,23-23S53.2,0,40.5,0L40.5,0z"/>
	<path d="M57.6,51.1c0.4,0.1,0.8,0.3,1.2,0.4C66.9,54,77,57.1,78.1,64c0.6,3.8-0.5,7.4-3.3,10.6c-7.1,8.3-22.6,12.6-34.3,12.6
		S13.3,82.9,6.2,74.6C3.4,71.4,2.3,67.8,2.9,64C4,57.1,14.1,54,22.2,51.4c0.4-0.1,0.8-0.3,1.2-0.4c4.9,3.7,10.9,5.8,17.1,5.8
		C46.7,56.8,52.7,54.8,57.6,51.1 M57,48C52.5,51.8,46.8,54,40.5,54c-6.3,0-12-2.3-16.5-6.1c-9.3,3-22.3,6.2-23.8,15.6
		C-2.5,80.3,22.4,90,40.5,90c18.1,0,43-9.7,40.3-26.5C79.3,54.1,66.3,51,57,48L57,48z"/>
</g>
</svg>
