<svg xmlns="http://www.w3.org/2000/svg" width="96" height="96" viewBox="0 0 96 96">
  <g id="Group_1" data-name="Group 1" transform="translate(-2 -2)">
    <path id="Path_1" data-name="Path 1" d="M50,2A48,48,0,1,0,98,50,48.012,48.012,0,0,0,50,2ZM80.4,75.7c0,8.2-15.7,10-30.4,10s-30.5-1.9-30.5-10V73.4c0-6,10.8-12.1,20.1-15.4.7-.2,3.9-2,2.1-6.7a29.323,29.323,0,0,1-8-19.7c0-11.4,7.5-17.4,16.4-17.4,8.8,0,16.4,6,16.4,17.4a29.753,29.753,0,0,1-8,19.6h0c-1.7,5.3,1,6.6,1.5,6.7,9.7,3.2,20.6,9.2,20.6,15.4A10.145,10.145,0,0,0,80.4,75.7Z"/>
  </g>
</svg>
