<svg xmlns="http://www.w3.org/2000/svg" width="95" height="68" viewBox="0 0 95 68">
  <g id="noun_users_1995134" transform="translate(-2.5 -16)">
    <path id="Path_6" data-name="Path 6" d="M87.7,54.2l-4.1-1.9A15.916,15.916,0,0,1,81.4,51a17.677,17.677,0,0,0,4.4-11.8c0-9-6.4-16.4-14.3-16.4S57.2,30.1,57.2,39.2A17.677,17.677,0,0,0,61.6,51a15.916,15.916,0,0,1-2.2,1.3l-4.1,1.9c-.8.4-1.5.8-2.3,1.2a16.386,16.386,0,0,0-8.2-8l-4.1-1.9a15.916,15.916,0,0,1-2.2-1.3,17.677,17.677,0,0,0,4.4-11.8c0-9-6.4-16.4-14.3-16.4S14.3,23.3,14.3,32.4a17.677,17.677,0,0,0,4.4,11.8,15.916,15.916,0,0,1-2.2,1.3l-4.1,1.9A16.811,16.811,0,0,0,2.5,62.7v7.2a7.341,7.341,0,0,0,7.3,7.3H45.4A7.32,7.32,0,0,0,52.7,84H90.2a7.341,7.341,0,0,0,7.3-7.3V69.5A16.887,16.887,0,0,0,87.7,54.2ZM71.4,26.6c5.9,0,10.6,5.7,10.6,12.7S77.2,52,71.4,52,60.8,46.3,60.8,39.3C60.8,32.2,65.6,26.6,71.4,26.6ZM28.6,19.8c5.9,0,10.6,5.7,10.6,12.7S34.4,45.2,28.6,45.2C22.7,45.2,18,39.5,18,32.5,17.9,25.5,22.7,19.8,28.6,19.8ZM45.4,69.4v4H9.8a3.585,3.585,0,0,1-3.6-3.6V62.6a13.056,13.056,0,0,1,7.7-11.9L18,48.8a16.536,16.536,0,0,0,3.6-2.2,13.345,13.345,0,0,0,7,2.1,13.345,13.345,0,0,0,7-2.1,16.536,16.536,0,0,0,3.6,2.2l4.1,1.9a12.785,12.785,0,0,1,6.8,7.1A16.767,16.767,0,0,0,45.4,69.4Zm48.4,7.2a3.585,3.585,0,0,1-3.6,3.6H52.7a3.585,3.585,0,0,1-3.6-3.6V69.4a13.056,13.056,0,0,1,7.7-11.9l4.1-1.9a16.536,16.536,0,0,0,3.6-2.2,12.717,12.717,0,0,0,14,0,16.536,16.536,0,0,0,3.6,2.2l4.1,1.9h0a13.056,13.056,0,0,1,7.7,11.9v7.2Z"/>
  </g>
</svg>
