<svg height="100" viewBox="0 -48 512 512" width="100" xmlns="http://www.w3.org/2000/svg"><path d="m8 8h496v400h-496zm0 0" fill="#ff8a65"/><path d="m8 8h496v64h-496zm0 0" fill="#a6e7ff"/><path d="m338.238281 229.761719 69.761719-69.761719-48-48-168 168-48-48-48 48 96 96zm0 0" fill="#a6e7ff"/><path d="m272 288h96v80h-96zm0 0" fill="#ffe082"/><g fill="#fff"><path d="m32 32h16v16h-16zm0 0"/><path d="m64 32h16v16h-16zm0 0"/><path d="m96 32h16v16h-16zm0 0"/><path d="m72 200h-32v-16h32c4.417969 0 8-3.582031 8-8s-3.582031-8-8-8h-16c-13.253906 0-24-10.746094-24-24s10.746094-24 24-24h32v16h-32c-4.417969 0-8 3.582031-8 8s3.582031 8 8 8h16c13.253906 0 24 10.746094 24 24s-10.746094 24-24 24zm0 0"/><path d="m144 200h-32v-16h32c4.417969 0 8-3.582031 8-8s-3.582031-8-8-8h-16c-13.253906 0-24-10.746094-24-24s10.746094-24 24-24h32v16h-32c-4.417969 0-8 3.582031-8 8s3.582031 8 8 8h16c13.253906 0 24 10.746094 24 24s-10.746094 24-24 24zm0 0"/><path d="m232 200h-48v-80h16v64h32zm0 0"/><path d="m312 328h16v16h-16zm0 0"/><path d="m400 360h80v16h-80zm0 0"/><path d="m400 328h64v16h-64zm0 0"/><path d="m400 296h32v16h-32zm0 0"/><path d="m160 32h320v16h-320zm0 0"/></g><path d="m0 0v416h512v-416zm496 400h-480v-320h480zm0-336h-480v-48h480zm0 0"/><path d="m264 315.3125v60.6875h112v-96h-16v-24c-.035156-9.777344-3.675781-19.199219-10.230469-26.457031l69.542969-69.542969-59.3125-59.3125-168 168-48-48-59.3125 59.3125 107.3125 107.3125zm96-19.3125v64h-80v-64zm-64-16v-24c0-13.253906 10.746094-24 24-24s24 10.746094 24 24v24zm-152-36.6875 48 48 168-168 36.6875 36.6875-59.847656 59.847656c-5.261719-2.507812-11.011719-3.824218-16.839844-3.847656-22.082031.027344-39.972656 17.917969-40 40v24h-16v12.6875l-72 72-84.6875-84.6875zm0 0"/></svg>
