<svg height="150px" viewBox="-50 1 511 511.999" width="150px" xmlns="http://www.w3.org/2000/svg"><path d="m321.320312 480.035156h16.933594c6.265625 0 11.363282-5.097656 11.363282-11.363281v-21.167969h21.171874c6.265626 0 11.363282-5.097656 11.363282-11.363281v-16.933594c0-6.265625-5.097656-11.363281-11.363282-11.363281h-21.171874v-21.171875c0-6.265625-5.097657-11.363281-11.363282-11.363281h-16.933594c-6.265624 0-11.359374 5.097656-11.359374 11.363281v21.171875h-21.171876c-6.265624 0-11.363281 5.097656-11.363281 11.363281v16.933594c0 6.265625 5.097657 11.363281 11.363281 11.363281h21.171876v21.171875c0 6.265625 5.09375 11.359375 11.359374 11.359375zm-28.894531-47.535156v-9.65625h22.746094c5.398437 0 9.789063-4.390625 9.789063-9.785156v-22.746094h9.65625v22.746094c0 5.394531 4.390624 9.785156 9.789062 9.785156h22.746094v9.65625h-22.746094c-5.398438 0-9.789062 4.390625-9.789062 9.789062v22.746094h-9.65625v-22.746094c0-5.398437-4.390626-9.789062-9.789063-9.789062zm0 0"/><path d="m132.660156 248.445312-91.363281 35.417969c-.046875.019531-.09375.039063-.140625.058594-1.660156.683594-40.65625 17.238281-40.65625 62.789063v94.101562c0 13.1875 10.726562 23.914062 23.910156 23.914062h135.28125c4.140625 0 7.5-3.359374 7.5-7.5 0-4.144531-3.359375-7.503906-7.5-7.503906h-82.902344v-88.902344c0-4.140624-3.359374-7.5-7.5-7.5-4.144531 0-7.5 3.359376-7.5 7.5v88.902344h-37.378906c-4.914062 0-8.910156-3.996094-8.910156-8.910156v-94.101562c0-22.695313 14.589844-41.75 31.316406-48.898438 16.722656-6.484375 58.828125-22.804688 72.984375-28.292969 6.789063 7.207031 24.140625 29.09375 57.488281 29.09375 19.414063 0 37.589844-7.957031 51.183594-22.402343l6.722656-7.144532 74.207032 28.738282c8.714844 3.828124 30.042968 18.058593 31.277344 46.25-3.257813-.425782-7.375-.707032-10.890626-.707032-46.5 0-84.328124 37.828125-84.328124 84.324219 0 7.382813.953124 14.808594 2.917968 22.050781h-53.6875c-4.144531 0-7.5 3.359375-7.5 7.5 0 4.144532 3.355469 7.5 7.5 7.5h59.367188c13.742187 27.972656 42.519531 47.277344 75.730468 47.277344 19.144532 0 37.886719-6.597656 52.78125-18.570312 14.660157-11.789063 25.070313-28.324219 29.320313-46.554688.941406-4.03125-1.566406-8.066406-5.601563-9.007812-4.03125-.9375-8.066406 1.566406-9.007812 5.601562-7.347656 31.519531-35.101562 53.53125-67.492188 53.53125-38.238281 0-69.328124-31.113281-69.328124-69.328125 0-38.226563 31.101562-69.324219 69.328124-69.324219 32.019532 0 60.070313 21.691406 67.492188 53.527344.941406 4.03125 4.976562 6.542969 9.007812 5.601562 4.035157-.941406 6.542969-4.972656 5.601563-9.007812-6.339844-27.203125-26.59375-51.429688-56.152344-60.996094 0-30.46875-18.480469-54.394531-40.640625-63.542968 0 0-.011718-.003907-.011718-.007813-.050782-.019531-.101563-.039063-.148438-.058594l-79.03125-30.605469c-.003906-.003906-.003906-.003906-.007812-.003906l-12.71875-4.925781c-.484376-.1875-.808594-.664063-.808594-1.179687v-21.078126c14.730468-11.417968 24.929687-28.386718 27.4375-47.75 17.886718-1.164062 31.027344-15.625 31.027344-32.667968 0-7.917969-2.867188-15.476563-7.972657-21.355469v-28.722656c0-52.699219-42.875-95.574219-95.574219-95.574219-52.699218 0-95.574218 42.875-95.574218 95.574219v29.472656c-5.164063 5.824219-7.972656 12.996094-7.972656 20.605469 0 17.023437 13.117187 31.5 31.019531 32.667968 2.453125 19.113282 12.523437 36.960938 29.003906 48.886719v19.625c0 .722657-.433594 1.351563-1.105469 1.613281zm117.769532-85.269531v-35.042969c8.925781 1.308594 15.40625 8.683594 15.40625 17.519532 0 8.601562-6.203126 16.152344-15.40625 17.523437zm-153.714844-67.601562c0-44.429688 36.144531-80.574219 80.574218-80.574219 44.425782 0 80.570313 36.144531 80.570313 80.574219v18.90625c-2.386719-.75-4.875-1.234375-7.429687-1.445313 0-4.828125.097656-5.941406-6.085938-12.796875-3.296875-3.660156-8.199219-8.773437-18.1875-19.507812-1.402344-1.507813-3.078125-2.632813-4.882812-3.355469-7.175782-2.863281-12.222657 1.183594-14.929688 2.875-25.839844 16.136719-57.589844 24.832031-87.695312 22.664062-6.714844-.511718-12.621094 4.03125-14.128907 10.335938-2.523437.277344-5.515625.976562-7.804687 1.777344zm-7.972656 50.078125c0-8.535156 7.179687-15.375 15.40625-17.15625v34.679687c-9.179688-1.363281-15.40625-8.894531-15.40625-17.523437zm30.40625 23.339844c0-11.128907 0-41.449219 0-51.011719 32.75 1.96875 67.890624-7.496094 96.882812-26.113281 11.246094 12.082031 17.472656 18.550781 19.398438 20.933593 0 65.605469.011718 54.949219-.023438 57.066407-1.050781 33.339843-27.621094 56.328124-57.179688 56.328124h-.003906c-35.445312 0-59.074218-27.492187-59.074218-57.203124zm88.21875 66.054687v12.101563c0 6.664062 4.179687 12.761718 10.394531 15.167968l2.339843.90625-2.550781 2.710938c-10.730469 11.402344-25.027343 17.679687-40.261719 17.679687-17.921874.003907-30.878906-7.707031-42.394531-19.945312l3.1875-1.234375c6.390625-2.480469 10.683594-8.746094 10.683594-15.601563v-11.285156c18.640625 7.605469 40.265625 7.628906 58.601563-.5zm0 0"/></svg>
