<?xml version="1.0" encoding="utf-8"?>
<!-- Generator: Adobe Illustrator 23.0.2, SVG Export Plug-In . SVG Version: 6.00 Build 0)  -->
<svg version="1.1" id="Capa_1" xmlns="http://www.w3.org/2000/svg" xmlns:xlink="http://www.w3.org/1999/xlink" x="0px" y="0px"
	 width="100%" height="100%" viewBox="0 0 33 33" style="enable-background:new 0 0 33 33;" xml:space="preserve">
<style type="text/css">
	.st0{fill:#FFFFFF;}
</style>
<g>
	<g>
		<path class="st0" d="M24,5.2c-0.1,0-0.3-0.1-0.4-0.2l-3.1-3.9l-3.9,3.1c-0.2,0.2-0.5,0.1-0.7-0.1c-0.2-0.2-0.1-0.5,0.1-0.7
			l4.2-3.4C20.6-0.1,20.9,0,21,0.2l3.4,4.2c0.2,0.2,0.1,0.5-0.1,0.7C24.3,5.2,24.1,5.2,24,5.2z"/>
		<path class="st0" d="M4.5,17.2c-0.3,0-0.5-0.2-0.5-0.5s0.2-0.5,0.5-0.5c8.6,0,15.7-7,15.7-15.7c0-0.3,0.2-0.5,0.5-0.5
			s0.5,0.2,0.5,0.5C21.2,9.7,13.7,17.2,4.5,17.2z"/>
	</g>
	<path class="st0" d="M4.5,33C4.2,33,4,32.8,4,32.5v-7.7c0-0.3,0.2-0.5,0.5-0.5S5,24.5,5,24.8v7.7C5,32.8,4.8,33,4.5,33z"/>
	<path class="st0" d="M12.5,33c-0.3,0-0.5-0.2-0.5-0.5V20c0-0.3,0.2-0.5,0.5-0.5S13,19.7,13,20v12.5C13,32.8,12.8,33,12.5,33z"/>
	<path class="st0" d="M20.5,33c-0.3,0-0.5-0.2-0.5-0.5v-16c0-0.3,0.2-0.5,0.5-0.5s0.5,0.2,0.5,0.5v16C21,32.8,20.8,33,20.5,33z"/>
	<path class="st0" d="M28.5,33c-0.3,0-0.5-0.2-0.5-0.5V11.3c0-0.3,0.2-0.5,0.5-0.5s0.5,0.2,0.5,0.5v21.2C29,32.8,28.8,33,28.5,33z"
		/>
</g>
</svg>
