<?xml version="1.0" encoding="utf-8"?>
<!-- Generator: Adobe Illustrator 23.0.2, SVG Export Plug-In . SVG Version: 6.00 Build 0)  -->
<svg version="1.1" id="Layer_1" xmlns="http://www.w3.org/2000/svg" xmlns:xlink="http://www.w3.org/1999/xlink" x="0px" y="0px"
	width="100%" height="100%" viewBox="0 0 58 60" style="enable-background:new 0 0 58 60;" xml:space="preserve">
<style type="text/css">
	.st0{fill:#FFFFFF;}
</style>
<title>commodity-coin-stock-gold-goods-stock</title>
<path class="st0" d="M42,28c-8.8,0-16,7.2-16,16s7.2,16,16,16s16-7.2,16-16S50.8,28,42,28z M37,49h-2v3h-2v-3h-2V39h2v-3h2v3h2V49z
	 M45,51h-2v4h-2v-4h-2v-7h2v-3h2v3h2V51z M53,45h-2v3h-2v-3h-2v-8h2v-2h2v2h2V45z"/>
<polygon class="st0" points="33,16 30,21 44,21 41,16 "/>
<polygon class="st0" points="23,16 15,16 12,21 26,21 "/>
<polygon class="st0" points="24,7 21,12 35,12 32,7 "/>
<rect x="5" y="18" class="st0" width="3" height="2"/>
<rect x="48" y="18" class="st0" width="3" height="2"/>
<rect x="11.5" y="3.3" transform="matrix(0.7071 -0.7071 0.7071 0.7071 0.3023 10.2338)" class="st0" width="2" height="3"/>
<rect x="42" y="4.2" transform="matrix(0.7071 -0.7071 0.7071 0.7071 9.0286 32.2932)" class="st0" width="3" height="2"/>
<rect x="27" class="st0" width="2" height="3"/>
<path class="st0" d="M0,43.6c1.4,1.3,4.5,2.3,8,2.3s6.6-0.9,8-2.3V40c-2.4,1.4-5.2,2-8,1.9C5.2,42,2.4,41.3,0,40V43.6z"/>
<path class="st0" d="M0,53.6c1.4,1.3,4.5,2.3,8,2.3s6.6-0.9,8-2.3V50c-2.4,1.4-5.2,2-8,1.9C5.2,52,2.4,51.3,0,50V53.6z"/>
<path class="st0" d="M0,48.6c1.4,1.3,4.5,2.3,8,2.3s6.6-0.9,8-2.3V45c-2.4,1.4-5.2,2-8,1.9C5.2,47,2.4,46.3,0,45V48.6z"/>
<path class="st0" d="M0,55.6C0,58,3.6,60,8,60s8-2,8-4.4V55c-2.4,1.4-5.2,2-8,1.9C5.2,57,2.4,56.3,0,55V55.6z"/>
<path class="st0" d="M0.7,34.2C1.4,35.8,4.5,37,8,37s6.6-1.2,7.3-2.8c0.2-0.4,0.1-0.8-0.2-1.1c-1.3-1.3-4-2.1-7.1-2.1
	s-5.7,0.9-7.1,2.1C0.6,33.4,0.5,33.9,0.7,34.2z"/>
<path class="st0" d="M0,35v3.6c1.4,1.3,4.5,2.3,8,2.3s6.6-0.9,8-2.3V35c-1.2,1.7-4.3,3-8,3S1.2,36.8,0,35z"/>
</svg>
