<?xml version="1.0" encoding="utf-8"?>
<!-- Generator: Adobe Illustrator 23.0.2, SVG Export Plug-In . SVG Version: 6.00 Build 0)  -->
<svg version="1.1" id="Layer_1" xmlns="http://www.w3.org/2000/svg" xmlns:xlink="http://www.w3.org/1999/xlink" x="0px" y="0px"
	width="100%" height="100%"   viewBox="0 0 77.5 60.9" style="enable-background:new 0 0 77.5 60.9;" xml:space="preserve">
<style type="text/css">
	.st0{fill:#FFFFFF;}
</style>
<g>
	<path class="st0" d="M77.5,5c0-2.8-2.2-5-5-5H5C2.2,0,0,2.2,0,5v6.4c0,0,0,0,0,0s0,0,0,0v48.2c0,0.7,0.6,1.3,1.3,1.3h75
		c0.7,0,1.3-0.6,1.3-1.3V11.4c0,0,0,0,0,0s0,0,0,0V5z M2.5,5c0-1.4,1.1-2.5,2.5-2.5h67.5C73.9,2.5,75,3.6,75,5v5.1H2.5V5z M75,58.4
		H2.5v-9.9h16.2c0.7,0,1.3-0.6,1.3-1.3S19.4,46,18.7,46H2.5V12.6H75V58.4z"/>
	<path class="st0" d="M19.2,33.2h-5.8c-0.7,0-1.3,0.6-1.3,1.3s0.6,1.3,1.3,1.3h2.8v1.8c0,0.7,0.6,1.3,1.3,1.3s1.3-0.6,1.3-1.3v-1.8
		h0.5c2,0,3.6-1.6,3.6-3.6s-1.6-3.6-3.6-3.6h-3.5c-0.6,0-1.1-0.5-1.1-1.1c0-0.6,0.5-1.1,1.1-1.1h5.8c0.7,0,1.3-0.6,1.3-1.3
		s-0.6-1.3-1.3-1.3h-2.8v-1.8c0-0.7-0.6-1.3-1.3-1.3s-1.3,0.6-1.3,1.3v1.8h-0.5c-2,0-3.6,1.6-3.6,3.6c0,2,1.6,3.6,3.6,3.6h3.5
		c0.6,0,1.1,0.5,1.1,1.1S19.8,33.2,19.2,33.2z"/>
	<path class="st0" d="M31,41.5c0.7,0,1.3-0.6,1.3-1.3V19.3c0-0.7-0.6-1.3-1.3-1.3s-1.3,0.6-1.3,1.3v20.9
		C29.8,40.9,30.3,41.5,31,41.5z"/>
	<path class="st0" d="M35.4,26.2l4.1-2l1.3,4.7c0.1,0.4,0.4,0.6,0.7,0.8c0.3,0.2,0.7,0.1,1.1,0l3.3-1.6l2.7,5c0.2,0.4,0.5,0.6,1,0.6
		c0.4,0,0.8-0.1,1.1-0.4l1.8-2l4.8,6.6c0.2,0.3,0.6,0.5,1,0.5c0,0,0,0,0.1,0c0.4,0,0.8-0.3,1-0.6l2.1-3.5l2,1.4
		c0.5,0.4,1.2,0.3,1.6-0.2l4.6-4.9c0.5-0.5,0.4-1.3-0.1-1.8c-0.5-0.5-1.3-0.4-1.8,0.1L64,33l-2.2-1.6c-0.3-0.2-0.6-0.3-1-0.2
		c-0.3,0.1-0.6,0.3-0.8,0.6l-1.8,3.1l-4.6-6.3c-0.2-0.3-0.6-0.5-0.9-0.5c-0.4,0-0.7,0.1-1,0.4L50,30.3l-2.5-4.5
		c-0.3-0.6-1-0.8-1.6-0.5l-3,1.5l-1.4-4.7c-0.1-0.4-0.4-0.6-0.7-0.8c-0.3-0.1-0.7-0.1-1.1,0L34.3,24c-0.6,0.3-0.9,1.1-0.6,1.7
		S34.7,26.5,35.4,26.2z"/>
	<path class="st0" d="M6.6,52.2c0,0.7,0.6,1.3,1.3,1.3h17.5c0.7,0,1.3-0.6,1.3-1.3S26,51,25.3,51H7.9C7.2,51,6.6,51.5,6.6,52.2z"/>
	<path class="st0" d="M45,46.5h-5.4c-0.7,0-1.3,0.6-1.3,1.3s0.6,1.3,1.3,1.3H45c0.7,0,1.3-0.6,1.3-1.3S45.7,46.5,45,46.5z"/>
	<path class="st0" d="M56.1,46.5h-5.4c-0.7,0-1.3,0.6-1.3,1.3S50,49,50.7,49h5.4c0.7,0,1.3-0.6,1.3-1.3S56.8,46.5,56.1,46.5z"/>
	<path class="st0" d="M67.2,46.5h-5.4c-0.7,0-1.3,0.6-1.3,1.3s0.6,1.3,1.3,1.3h5.4c0.7,0,1.3-0.6,1.3-1.3S67.9,46.5,67.2,46.5z"/>
	<ellipse class="st0" cx="7.3" cy="6.4" rx="1.3" ry="1.3"/>
	<ellipse class="st0" cx="13.3" cy="6.4" rx="1.3" ry="1.3"/>
	<ellipse class="st0" cx="19.4" cy="6.4" rx="1.3" ry="1.3"/>
</g>
</svg>
