<?xml version="1.0" encoding="utf-8"?>
<!-- Generator: Adobe Illustrator 23.0.2, SVG Export Plug-In . SVG Version: 6.00 Build 0)  -->
<svg version="1.1" id="Layer_1" xmlns="http://www.w3.org/2000/svg" xmlns:xlink="http://www.w3.org/1999/xlink" x="0px" y="0px"
	width="100%" height="100%"   viewBox="0 0 512 512" style="enable-background:new 0 0 512 512;" xml:space="preserve">
<style type="text/css">
	.st0{fill:#FFFFFF;}
</style>
<path class="st0" d="M42.9,429.8h18.9c10.4,0,18.9-8.5,18.9-18.9v-3.3c24.7,3.2,48.3,12.6,68.6,27.3l82,59.6
	c15.2,11.3,33.9,17.5,52.8,17.5h76.8c18.1,0,32.8-14.7,32.8-32.8c0-8.9-3.6-17-9.4-22.9c14.5-26.5-11.5-56.8-39.8-46.7
	c-82,29.1-76.1,27.2-77.7,27.2l-10.8-9.4c26.4-6.8,35.9-40.2,15.7-59.7l-4.6-4.5c0.8-0.2,1.5-0.5,2.3-0.8
	c48.1-22.9,98-66.7,102-122.6h60.3v6.4c0,10.4,8.5,18.9,18.9,18.9h18.9c10.9,0,19.9-8.9,19.9-19.9v-54.1c0-4.1-3.4-7.5-7.5-7.5
	c-4.1,0-7.5,3.4-7.5,7.5v54.1c0,2.7-2.2,4.9-4.8,4.9h-18.9c-2.2,0-3.9-1.8-3.9-3.9c0-5.5,0-139.4,0-144.9c0-2.2,1.8-3.9,3.9-3.9
	h18.9c2.7,0,4.8,2.2,4.8,4.8v54.1c0,4.1,3.4,7.5,7.5,7.5c4.1,0,7.5-3.4,7.5-7.5v-54.1c0-10.9-8.9-19.9-19.9-19.9h-18.9
	c-10.4,0-18.9,8.5-18.9,18.9v3.3c-24.7-3.2-48.3-12.6-68.6-27.3l-82-59.6C266,6.2,247.3,0,228.3,0h-76.8
	c-18.1,0-32.8,14.7-32.8,32.8c0,8.9,3.6,17,9.4,22.9c-4.5,8.1-5.3,17.8-2.2,26.8c6.1,17.1,24.8,26.1,41.9,20l75.7-26.8
	c0.7-0.2,1.4-0.4,2.1-0.4l10.8,9.4c-6.6,1.7-12.6,5.3-17.3,10.5c-12.9,14.2-12.2,35.9,1.6,49.2l41,39.7
	c-6.8,4.7-12.6,10.9-17.3,18.5c-0.1,0.1-0.3,0.3-0.5,0.4c-0.1-0.1-0.4-0.2-0.6-0.5c-35.1-59.2-138.2-21-98.5,71.6
	c-8.3-2.2-13.9-1.9-21.1-1.9c-4.1,0-7.5,3.4-7.5,7.5c0,4.1,3.4,7.5,7.5,7.5c8,0,21.7-1.1,35.1,11.2c1.1,1,45.5,44,45.5,44l37.1,35.9
	c8,7.7,8.4,20.2,0.9,28.4c-6.5,7.2-17.1,8.8-25.4,3.9L183.6,362c-3.1-2.8-7.8-2.6-10.6,0.5s-2.6,7.8,0.5,10.6
	c6.5,5.9,73.6,67.7,93.2,83.3c3.9,3.1,8.8,4.9,13.9,4.9h80.3c9.8,0,17.8,8,17.8,17.8c0,9.8-8,17.8-17.8,17.8h-76.8
	c-15.7,0-31.3-5.2-43.9-14.6L158,422.7c-22.8-16.6-49.4-27-77.4-30.3V287.3h28c4.1,0,7.5-3.4,7.5-7.5s-3.4-7.5-7.5-7.5h-28v-6.4
	c0-10.4-8.5-18.9-18.9-18.9H42.9c-10.9,0-19.9,8.9-19.9,19.9v143.1C23,420.9,31.9,429.8,42.9,429.8z M162.8,88.4
	c-9.3,3.3-19.5-1.6-22.8-10.8c-1.6-4.5-1.3-9.4,0.7-13.7c3.4,1.2,7.1,1.8,10.8,1.8h75.2L162.8,88.4z M251.1,133.6
	c-8-7.7-8.4-20.2-0.9-28.4c6.7-7.4,17.4-8.6,25.4-3.9c15,13.1,4.5,3.6,53.2,48.6c3,2.8,7.8,2.6,10.6-0.4c2.8-3,2.6-7.8-0.4-10.6
	c-64.7-59.8-27.9-26.6-92.5-82.8c-4.1-3.5-9.3-5.5-14.7-5.5h-80.3c-9.8,0-17.8-8-17.8-17.8c0-9.8,8-17.8,17.8-17.8h76.8
	c15.7,0,31.3,5.2,43.9,14.6l82.1,59.7c22.8,16.6,49.4,27,77.4,30.3v105.1h-69.5c-11.1,0-21.5-4.3-29.3-11.9l-33.6-32.5L251.1,133.6z
	 M234.2,331.2c-1.4-1.3-42.3-40.9-44.4-42.9c-1-1-18.9-25-19-56.3c0-25.6,22.5-45.8,48.4-42.4c23,3.1,31,21.1,32.6,22.7
	c8.9,9.3,20.2,6.2,25.2-1.9c4.3-6.8,9.5-12.1,15.7-15.7l27.9,27c10.5,10.1,20.8,16.1,35.8,17.6c-4,49.1-49.7,88.3-92.5,108.9
	C253.6,343.4,243.6,337.6,234.2,331.2z M371.7,448.1c-7-2.4-4-1.8-86-1.8l63.9-22.7C364.5,418.3,378.6,433.8,371.7,448.1z M38,266.8
	c0-2.7,2.2-4.9,4.9-4.9h18.9c2.2,0,3.9,1.8,3.9,3.9v144.9c0,2.2-1.8,3.9-3.9,3.9H42.9c-2.7,0-4.9-2.2-4.9-4.8V266.8z"/>
</svg>
