<?xml version="1.0" encoding="utf-8"?>
<!-- Generator: Adobe Illustrator 23.0.0, SVG Export Plug-In . SVG Version: 6.00 Build 0)  -->
<svg version="1.1" id="Layer_1" xmlns="http://www.w3.org/2000/svg" xmlns:xlink="http://www.w3.org/1999/xlink" x="0px" y="0px"
	 viewBox="0 0 145.2 238" style="enable-background:new 0 0 145.2 238;" xml:space="preserve">
<style type="text/css">
	.st0{fill:#FFFFFF;}
	.st1{fill-rule:evenodd;clip-rule:evenodd;fill:#FFFFFF;}
</style>
<g>
	<path class="st0" d="M74,0c61,0,103,76,40,134c-20,18-43,40-44,75H55c1-42,26-65,49-86c52-49,18-108-30-108c-33,0-54,32-59,62H0
		C5,39,32,0,74,0z"/>
	<path class="st1" d="M63,217c6,0,11,4,11,10s-5,11-11,11s-11-5-11-11S57,217,63,217z"/>
</g>
</svg>
