<?xml version="1.0" encoding="utf-8"?>
<!-- Generator: Adobe Illustrator 23.0.0, SVG Export Plug-In . SVG Version: 6.00 Build 0)  -->
<svg version="1.1" id="Layer_1" xmlns="http://www.w3.org/2000/svg" xmlns:xlink="http://www.w3.org/1999/xlink" x="0px" y="0px"
	 viewBox="0 0 64 76" style="enable-background:new 0 0 64 76;" xml:space="preserve">
<style type="text/css">
	.st0{fill:#FFFFFF;}
</style>
<title>Artboard 72</title>
<path class="st0" d="M63.7,64.9L56,53.4V32c0-10.2-6.5-19.3-16.1-22.6C40,8.9,40,8.5,40,8c0-4.4-3.6-8-8-8s-8,3.6-8,8
	c0,0.5,0.1,0.9,0.1,1.4C14.5,12.7,8,21.8,8,32v21.4L0.3,64.9c-0.6,0.9-0.4,2.2,0.6,2.8C1.2,67.9,1.6,68,2,68h18.7
	c2.2,6.2,9,9.5,15.2,7.3c3.4-1.2,6.1-3.9,7.3-7.3H62c1.1,0,2-0.9,2-2C64,65.6,63.9,65.2,63.7,64.9L63.7,64.9z M28,8c0-2.2,1.8-4,4-4
	s4,1.8,4,4c0,0.1-0.1,0.2-0.1,0.4c-2.6-0.5-5.3-0.5-7.9,0C28.1,8.2,28,8.1,28,8z M32,72c-2.9,0-5.5-1.5-6.9-4h13.9
	C37.5,70.5,34.9,72,32,72z M5.7,64l5.9-8.9c0.2-0.3,0.3-0.7,0.3-1.1V32c0-11,9-20,20-20s20,9,20,20v22c0,0.4,0.1,0.8,0.3,1.1
	l5.9,8.9H5.7z"/>
</svg>
