<?xml version="1.0" encoding="utf-8"?>
<!-- Generator: Adobe Illustrator 23.0.0, SVG Export Plug-In . SVG Version: 6.00 Build 0)  -->
<svg version="1.1" id="Capa_1" xmlns="http://www.w3.org/2000/svg" xmlns:xlink="http://www.w3.org/1999/xlink" x="0px" y="0px"
	 viewBox="0 0 510 510" style="enable-background:new 0 0 510 510;" xml:space="preserve">
<style type="text/css">
	.st0{fill:#FFFFFF;}
</style>
<g>
	<g id="notifications-none">
		<path class="st0" d="M255,510c28,0,51-23,51-51H204C204,487,226.9,510,255,510z M420.8,357V216.8c0-79.1-53.5-142.8-127.5-160.6
			V38.3C293.3,17.9,275.4,0,255,0s-38.3,17.9-38.3,38.3v17.8C142.8,73.9,89.3,137.7,89.3,216.8V357l-51,51v25.5h433.5V408L420.8,357
			z M369.8,382.5H140.3V216.8c0-63.8,51-114.8,114.8-114.8s114.8,51,114.8,114.8V382.5z"/>
	</g>
</g>
</svg>
