<?xml version="1.0" encoding="utf-8"?>
<!-- Generator: Adobe Illustrator 23.0.0, SVG Export Plug-In . SVG Version: 6.00 Build 0)  -->
<svg version="1.1"
	 id="Layer_1" xmlns:cc="http://creativecommons.org/ns#" xmlns:dc="http://purl.org/dc/elements/1.1/" xmlns:inkscape="http://www.inkscape.org/namespaces/inkscape" xmlns:rdf="http://www.w3.org/1999/02/22-rdf-syntax-ns#" xmlns:sodipodi="http://sodipodi.sourceforge.net/DTD/sodipodi-0.dtd" xmlns:svg="http://www.w3.org/2000/svg"
	 xmlns="http://www.w3.org/2000/svg" xmlns:xlink="http://www.w3.org/1999/xlink" x="0px" y="0px" viewBox="0 0 80 90.1"
	 style="enable-background:new 0 0 80 90.1;" xml:space="preserve">
<style type="text/css">
	.st0{fill:#FFFFFF;}
</style>
<g transform="translate(0,-952.36218)">
	<path class="st0" d="M40,952.4c-1.7,0-3,1.4-3,3c0,0,0,0,0,0v24c0,1.7,1.3,3,3,3c1.7,0,3-1.3,3-3c0,0,0-0.1,0-0.1v-24
		C43,953.8,41.7,952.4,40,952.4C40,952.4,40,952.4,40,952.4z M51.8,964.3c-1.7,0-3,1.3-3,3c0,1.4,0.9,2.6,2.3,2.9
		c13.4,4.6,23,17.2,23,32.2c0,18.8-15.2,34-34,34c-18.8,0-34-15.2-34-34c0-14.9,9.6-27.6,23-32.2c1.6-0.5,2.4-2.2,1.9-3.8
		c-0.4-1.3-1.7-2.2-3.1-2.1c-0.3,0-0.5,0.1-0.8,0.2c-15.7,5.4-27,20.3-27,37.8c0,22.1,17.9,40,40,40c22.1,0,40-17.9,40-40
		c0-17.5-11.3-32.5-27-37.8C52.6,964.4,52.2,964.3,51.8,964.3z"/>
</g>
</svg>
