<?xml version="1.0" encoding="utf-8"?>
<!-- Generator: Adobe Illustrator 23.0.2, SVG Export Plug-In . SVG Version: 6.00 Build 0)  -->
<svg version="1.1" id="Capa_1" xmlns="http://www.w3.org/2000/svg" xmlns:xlink="http://www.w3.org/1999/xlink" x="0px" y="0px"
	width="100%" height="100%" viewBox="0 0 609.7 609.7" style="enable-background:new 0 0 609.7 609.7;" xml:space="preserve">
<style type="text/css">
	.st0{fill:#FFFFFF;}
</style>
<g>
	<g>
		<g id="filled_outline_18_">
			<path class="st0" d="M476.4,599.5h-343c-11.9,0-21.6-9.7-21.6-21.6l0,0c0-5.7,2.3-11.2,6.3-15.2l34.3-34.3v-99.8
				c0-65.8,47.1-122.1,111.8-133.9h81.3c64.7,11.8,111.8,68.1,111.8,133.9v99.8l34.3,34.3c4,4,6.3,9.5,6.3,15.2l0,0
				C497.9,589.9,488.3,599.5,476.4,599.5z"/>
			<path class="st0" d="M491.6,562.7l-34.3-34.3v-99.8c0-31.8-11.1-62.5-31.4-86.9c-61.4,149.8-186.7,222.9-280.6,257.8h331.1
				c11.9,0,21.6-9.6,21.6-21.6C497.9,572.3,495.6,566.8,491.6,562.7z"/>
			<polygon class="st0" points="345.5,294.7 264.2,294.7 233.7,233.7 376,233.7 			"/>
			<rect x="294.7" y="62.2" class="st0" width="20.3" height="171.5"/>
			<path class="st0" d="M304.8,71.1h-10.2c-33.7,0-61-27.3-61-61h10.2C277.5,10.2,304.8,37.5,304.8,71.1z"/>
			<path class="st0" d="M203.2,101.6h20.3c44.9,0,81.3,36.4,81.3,81.3l0,0l0,0h-20.3C239.6,182.9,203.2,146.5,203.2,101.6
				L203.2,101.6L203.2,101.6z"/>
			<path class="st0" d="M376,10.2h-10.2c-33.7,0-61,27.3-61,61H315C348.7,71.1,376,43.8,376,10.2z"/>
			<path class="st0" d="M325.2,182.9h-20.3l0,0l0,0c0-44.9,36.4-81.3,81.3-81.3h20.3l0,0l0,0C406.5,146.5,370.1,182.9,325.2,182.9z"
				/>
			<path class="st0" d="M162.6,91.5L162.6,91.5c-3.5-20.8-19.8-37.2-40.6-40.6l0,0c20.8-3.5,37.2-19.8,40.6-40.6l0,0
				c3.5,20.8,19.8,37.2,40.6,40.6l0,0C182.4,54.3,166.1,70.6,162.6,91.5z"/>
			<path class="st0" d="M406.5,203.2v-20.3c16.8,0,30.5-13.6,30.5-30.5h20.3C457.2,180.5,434.5,203.2,406.5,203.2z"/>
			<path class="st0" d="M320.1,436.9h-30.5c-8.4,0-15.2-6.8-15.2-15.2s6.8-15.2,15.2-15.2l0,0h55.9v-20.3H315v-20.3h-20.3v20.3h-5.1
				c-19.6,0-35.6,15.9-35.6,35.6s15.9,35.6,35.6,35.6h30.5c8.4,0,15.2,6.8,15.2,15.2s-6.8,15.2-15.2,15.2h-55.9v20.3h30.5v20.3H315
				v-20.3h5.1c19.6,0,35.6-15.9,35.6-35.6S339.7,436.9,320.1,436.9z"/>
			<path class="st0" d="M101.6,578c0,17.5,14.2,31.7,31.7,31.7h343c17.5,0,31.7-14.2,31.7-31.7c0-8.4-3.3-16.5-9.3-22.4l-31.4-31.4
				v-95.6c0-65.7-43.8-123.3-107.1-140.9l24.8-49.4c2.5-5,0.5-11.1-4.6-13.6c-1.4-0.7-3-1.1-4.6-1.1h-61v-30.5h10.2
				c50.5-0.1,91.4-41,91.5-91.5c0-5.6-4.6-10.2-10.2-10.2h-20.3c-27.6,0-53.8,12.5-71.1,34.1V81.3c39.3-0.1,71.1-31.9,71.1-71.1
				C386.1,4.6,381.6,0,376,0h-10.2c-25,0-48.2,13.2-61,34.7C292,13.2,268.9,0,243.9,0h-10.2c-5.6,0-10.2,4.6-10.2,10.2
				c0.1,39.3,31.9,71.1,71.1,71.1v44.3c-17.3-21.6-43.5-34.1-71.1-34.1h-20.3c-5.6,0-10.2,4.6-10.2,10.2c0.1,50.5,41,91.4,91.5,91.5
				h10.2v30.5h-61c-5.6,0-10.2,4.5-10.2,10.2c0,1.6,0.4,3.1,1.1,4.5l24.7,49.4c-63.3,17.6-107.1,75.2-107.1,140.9v95.6l-31.4,31.4
				C105,561.5,101.6,569.6,101.6,578z M364.8,20.3C360,43.6,339.8,60.5,316,61C320.8,37.7,341,20.8,364.8,20.3z M244.9,20.3
				c23.7,0.5,44,17.4,48.8,40.6C269.9,60.5,249.7,43.6,244.9,20.3z M386.1,111.8h9.4c-5.1,35-35.1,60.9-70.4,61h-9.4
				C320.8,137.8,350.8,111.8,386.1,111.8z M284.5,172.7c-35.3,0-65.3-26-70.4-61h9.4c35.3,0,65.3,26,70.4,61H284.5z M359.5,243.9
				l-20.3,40.6h-68.7l-20.3-40.6L359.5,243.9L359.5,243.9z M125.3,569.9l34.3-34.3c1.9-1.9,3-4.5,3-7.2v-99.8
				c0-60.6,43.1-112.5,102.5-123.8h79.4c59.5,11.2,102.6,63.2,102.5,123.8v99.8c0,2.7,1.1,5.3,3,7.2l34.3,34.3
				c4.5,4.5,4.5,11.7,0,16.1c-2.1,2.1-5,3.3-8.1,3.3h-343c-6.3,0-11.4-5.1-11.4-11.4C121.9,574.9,123.1,572,125.3,569.9z"/>
			<path class="st0" d="M289.6,457.3h30.5c8.4,0,15.2,6.8,15.2,15.2s-6.8,15.2-15.2,15.2h-55.9v20.3h30.5v20.3H315v-20.3h5.1
				c19.6,0,35.6-15.9,35.6-35.6s-15.9-35.6-35.6-35.6h-30.5c-8.4,0-15.2-6.8-15.2-15.2s6.8-15.2,15.2-15.2l0,0h55.9v-20.3H315v-20.3
				h-20.3v20.3h-5.1c-19.6,0-35.6,15.9-35.6,35.6S270,457.3,289.6,457.3z"/>
			<path class="st0" d="M111.8,50.8c0,5,3.6,9.2,8.5,10c16.6,2.8,29.5,15.7,32.3,32.3c0.9,5.5,6.2,9.3,11.7,8.3
				c4.3-0.7,7.6-4.1,8.3-8.3c2.8-16.6,15.7-29.5,32.3-32.3c5.5-0.9,9.3-6.2,8.3-11.7c-0.7-4.3-4.1-7.6-8.3-8.3
				C188.3,38,175.4,25,172.6,8.5c-0.9-5.5-6.2-9.3-11.7-8.3c-4.3,0.7-7.6,4.1-8.3,8.3C149.8,25,136.8,38,120.3,40.8
				C115.4,41.6,111.8,45.8,111.8,50.8z M162.6,36.3c4,5.6,8.9,10.5,14.5,14.5c-5.6,4-10.5,8.9-14.5,14.5c-4-5.6-8.9-10.5-14.5-14.5
				C153.7,46.8,158.6,41.9,162.6,36.3z"/>
			<path class="st0" d="M406.5,182.9v20.3c28,0,50.8-22.8,50.8-50.8h-20.3C436.9,169.3,423.3,182.9,406.5,182.9z"/>
		</g>
	</g>
</g>
</svg>
