<?xml version="1.0" encoding="utf-8"?>
<!-- Generator: Adobe Illustrator 23.0.0, SVG Export Plug-In . SVG Version: 6.00 Build 0)  -->
<svg version="1.1" id="Layer_1" xmlns="http://www.w3.org/2000/svg" xmlns:xlink="http://www.w3.org/1999/xlink" x="0px" y="0px"
	 viewBox="0 0 16 20" style="enable-background:new 0 0 16 20;" xml:space="preserve">
<style type="text/css">
	.st0{fill:#FFFFFF;}
</style>
<path class="st0" d="M15.5,8C15.2,8,15,8.2,15,8.5c-0.2,3.7-3.3,6.5-7,6.5c-2.7,0-5.2-1.6-6.3-4h2.8C4.8,11,5,10.8,5,10.5
	S4.8,10,4.5,10h-4C0.2,10,0,10.2,0,10.5v4C0,14.8,0.2,15,0.5,15S1,14.8,1,14.5v-2.6C2.4,14.4,5.1,16,8,16c4.2,0,7.7-3.3,8-7.5
	C16,8.3,15.8,8,15.5,8z"/>
<path class="st0" d="M15.5,1C15.2,1,15,1.2,15,1.5v2.6C13.6,1.6,10.9,0,8,0C3.8,0,0.3,3.3,0,7.5C0,7.7,0.2,8,0.5,8l0,0
	C0.8,8,1,7.8,1,7.5C1.3,3.9,4.3,1,8,1c2.7,0,5.2,1.6,6.3,4h-2.8C11.2,5,11,5.2,11,5.5S11.2,6,11.5,6h4C15.8,6,16,5.8,16,5.5v-4
	C16,1.2,15.8,1,15.5,1z"/>
</svg>
