<?xml version="1.0" encoding="utf-8"?>
<!-- Generator: Adobe Illustrator 23.0.2, SVG Export Plug-In . SVG Version: 6.00 Build 0)  -->
<svg version="1.1" id="Layer_1" xmlns="http://www.w3.org/2000/svg" xmlns:xlink="http://www.w3.org/1999/xlink" x="0px" y="0px"
	 width="100%" height="100%"  viewBox="0 0 512 512" style="enable-background:new 0 0 512 512;" xml:space="preserve">
<style type="text/css">
	.st0{fill:#FFFFFF;}
</style>
<path class="st0" d="M117.6,52.2c-2.5-6-11.2-6.2-13.9-0.3c-1.4,3-0.7,6.6,1.7,8.8c2.4,2.3,6.2,2.6,9,1
	C117.7,59.8,119.1,55.6,117.6,52.2z"/>
<path class="st0" d="M169.4,52.2c-2.6-6.1-11.5-6.2-14.1,0c-1.3,3.1-0.3,6.8,2.3,8.9c2.4,1.9,5.9,2.1,8.6,0.6
	C169.5,59.7,170.8,55.6,169.4,52.2z"/>
<path class="st0" d="M143.5,52.2c-1.2-2.8-3.9-4.7-7-4.7c-3.4,0-6.4,2.2-7.4,5.4c-0.9,3,0.2,6.3,2.6,8.2c2.5,2,6.2,2.1,8.9,0.4
	C143.7,59.5,144.9,55.5,143.5,52.2z"/>
<path class="st0" d="M477.6,16H101.9c-19,0-34.4,15.4-34.4,34.4V184c0,4.2,3.4,7.6,7.6,7.6s7.6-3.4,7.6-7.6V90.1h226.4v99
	c0,2.9,1.7,5.6,4.3,6.8c1.1,0.5,2.2,0.8,3.3,0.8c1.7,0,3.3-0.5,4.7-1.6l96.1-74.5c1.6-1.2,2.6-3.1,2.9-5.1c0.3-2-0.3-4-1.6-5.6
	c-5.8-7.4-12.2-14-19.2-19.8h97.1v295.4c0,10.6-8.6,19.2-19.2,19.2H257.3v-33.6c10.5,2.7,21.4,4.1,32.4,4.1
	c71.3,0,129.4-58,129.4-129.4c0-8.2-0.8-16.4-2.3-24.4c-0.8-4.1-4.8-6.8-8.9-6c-4.1,0.8-6.8,4.8-6,8.9c1.3,7.1,2,14.3,2,21.6
	c0,35.3-16.1,66.9-41.3,87.8l-62.4-86.3l84.1-65.4c4.4,6.5,8.1,13.4,11.1,20.7c1.6,3.9,6,5.8,9.9,4.2c3.9-1.6,5.8-6,4.2-9.9
	c-4.5-10.9-10.4-21.1-17.6-30.4c-2.6-3.3-7.4-3.9-10.7-1.3l-83.9,65.2V124.1c0-4.2-3.4-7.6-7.6-7.6c-71.3,0-129.4,58-129.4,129.4
	c0,38.8,17,74.8,46.7,99.5v59.3h-19.2V357c0-4.2-3.4-7.6-7.6-7.6h-35.1c-4.2,0-7.6,3.4-7.6,7.6v47.7h-19.7V209.3
	c0-4.2-3.4-7.6-7.6-7.6H75.1c-4.2,0-7.6,3.4-7.6,7.6v279.2c0,4.2,3.4,7.6,7.6,7.6h35.1c4.2,0,7.6-3.4,7.6-7.6v-68.6h19.7v68.6
	c0,4.2,3.4,7.6,7.6,7.6h35.1c4.2,0,7.6-3.4,7.6-7.6v-68.6H207v68.6c0,4.2,3.4,7.6,7.6,7.6h35.1c4.2,0,7.6-3.4,7.6-7.6v-68.6h220.2
	c19,0,34.4-15.4,34.4-34.4V50.4C512,31.4,496.6,16,477.6,16z M82.7,480.9v-264h19.9v264H82.7z M152.7,480.9V364.6h19.9v116.3H152.7z
	 M175.6,245.9c0-60.4,47.1-110,106.6-113.9v113.9c0,1.6,0.5,3.2,1.5,4.4l0,0l66.7,92.3c-17.6,11-38.3,17.4-60.5,17.4
	c-11.1,0-21.9-1.6-32.4-4.7v-59.3c0-4.2-3.4-7.6-7.6-7.6h-35.1c-4.2,0-7.6,3.4-7.6,7.6v28.5C186.9,303.5,175.6,275.6,175.6,245.9z
	 M222.2,480.9V303.7h19.9v177.2H222.2z M324.3,173.6v-98c30,2,57.6,15.4,77.6,37.8L324.3,173.6z M376.9,74.9
	c-18.3-9.6-38.8-14.7-60.2-14.7c-4.2,0-7.6,3.4-7.6,7.6v7.1H82.7V50.4c0-10.6,8.6-19.2,19.2-19.2h375.6c10.6,0,19.2,8.6,19.2,19.2
	v24.4H376.9z"/>
<path class="st0" d="M42.7,253.5H7.6c-4.2,0-7.6,3.4-7.6,7.6v227.4c0,4.2,3.4,7.6,7.6,7.6h35.1c4.2,0,7.6-3.4,7.6-7.6V427
	c0-4.2-3.4-7.6-7.6-7.6s-7.6,3.4-7.6,7.6v53.9H15.2V268.7h19.9v132.9c0,4.2,3.4,7.6,7.6,7.6s7.6-3.4,7.6-7.6V261.1
	C50.3,256.9,46.9,253.5,42.7,253.5z"/>
<path class="st0" d="M478.1,367.9h-80.7c-4.2,0-7.6,3.4-7.6,7.6s3.4,7.6,7.6,7.6h80.7c4.2,0,7.6-3.4,7.6-7.6
	S482.3,367.9,478.1,367.9z"/>
<path class="st0" d="M478.1,335.7h-56.3c-4.2,0-7.6,3.4-7.6,7.6s3.4,7.6,7.6,7.6h56.3c4.2,0,7.6-3.4,7.6-7.6
	S482.3,335.7,478.1,335.7z"/>
</svg>
