<?xml version="1.0" encoding="utf-8"?>
<!-- Generator: Adobe Illustrator 23.0.2, SVG Export Plug-In . SVG Version: 6.00 Build 0)  -->
<svg version="1.1" id="Capa_1" xmlns="http://www.w3.org/2000/svg" xmlns:xlink="http://www.w3.org/1999/xlink" x="0px" y="0px"
	 width="100%" height="100%" viewBox="0 0 1125 2436" style="enable-background:new 0 0 1125 2436;" xml:space="preserve">
<style type="text/css">
	.st0{fill:#FFFFFF;}
</style>
<g>
	<g>
		<path class="st0" d="M723.4,1426.3v-19.6c5.5-4.5,10.9-9.4,16-14.5c40.9-45.1,66.7-101.8,73.7-162.2c36.8-5.6,69.9-25.3,92.4-54.9
			c30.9-43.6,33.6-106.5,7.9-185.2c-1.5-4.5-4.5-8.4-8.5-11.1l-11.7-7.9c1.7-71.1-22.8-140.3-69-194.4
			C766.8,712,678.9,679.4,562.4,679c-116.3,0-204.4,33-261.7,96.7c-46.1,54.1-70.7,123.3-69,194.4l-11.7,7.9c-4,2.6-7,6.5-8.5,11.1
			c-25.8,79.2-23,141.6,7.9,185.2c22.4,29.8,55.6,49.8,92.4,55.6c7,60.5,32.9,117.4,73.9,162.5c5.1,5.1,10.4,9.9,16,14.5v19.6
			c-81.5,15.8-407.1,92.2-401.6,309.4c0,11.8,9.5,21.3,21.3,21.3h1082.3c11.8,0,21.3-9.5,21.3-21.3
			C1130.5,1518.5,804.9,1442.1,723.4,1426.3z M299,1182.3c-18.1-6.1-33.9-17.6-45.1-33l1.1,0.2c-21.3-31.1-23.2-78.1-4.3-140.3
			l15.5-10.4c6.5-4.4,10.1-12,9.4-19.8c-3.6-63.6,17.1-126.3,57.9-175.2c48.1-54.5,125.4-81.8,228.9-82.2s180.8,27.7,229.7,82.2
			c40.8,49,61.5,111.6,57.9,175.2c-0.8,7.8,2.8,15.4,9.4,19.8l15.5,10.4c18.9,62,17.7,109.2-4.3,140.3c-11.4,15.4-27.2,26.9-45.4,33
			c25.7-29.2,38.2-67.7,34.7-106.5c-4-23.3-16.1-44.4-34.3-59.6c-9.2-212.9-158.4-236.8-222.7-236.8c-13.6,0-27.2,1-40.7,3
			c-13.5-2-27.1-3-40.7-3c-63.9,0-212.9,23.4-222.7,236.8c-18.3,15.1-30.6,36.1-34.7,59.4C260.8,1114.6,273.3,1153.1,299,1182.3z
			 M783.4,1007.7c-89.3,5.2-178.1-17.1-254.4-63.9c-8.6-6.1-20.4-4.9-27.7,2.8c-42.6,45.8-120.3,56.4-157.8,58.8
			C355,854.9,446.1,822.1,522.8,822.1c12.2-0.1,24.4,0.9,36.4,3c2.8,0.6,5.7,0.6,8.5,0c12-2.1,24.2-3.1,36.4-3
			c76,0,167.6,33.6,178.2,185.5L783.4,1007.7z M351,1186.4l0.9,0.2c0-5.2-1.8-10.3-5.3-14.3c-29.2-33.4-42.6-63.9-39-89
			c1.7-14,8.6-26.8,19.4-36c28.1,0,127.8-5.3,191.6-60.5c71.9,41.4,153.4,63.4,236.3,63.9c14.3,0,28.7,0,43.9-2.3
			c10.4,8.9,17.3,21.3,19.2,34.9c3.6,24.7-9.8,55.6-39,89c-3.5,3.9-5.4,9-5.3,14.3c0,0,0,4.3,0,11.1l-123.9,66.4
			c-24.6-23.3-63.4-22.2-86.7,2.4c-23.3,24.6-22.2,63.4,2.4,86.7c24.6,23.3,63.4,22.2,86.7-2.4c10.8-11.4,16.8-26.5,16.8-42.2
			c0.1-1.9,0.1-3.8,0-5.7l97.7-52.4c-8.4,42-28.1,80.9-57.1,112.4c-37.7,36.3-88.8,55.5-141.2,52.8h-10.6
			c-52.2,2.6-103.2-16.4-141-52.6C349.5,1296,351,1187.4,351,1186.4z M626.3,1308.6c0,10.5-8.5,18.9-18.9,18.9
			c-10.5,0-18.9-8.5-18.9-18.9c0-10.5,8.5-18.9,18.9-18.9S626.3,1298.1,626.3,1308.6z M541.1,1713.1H43.3
			c16.8-159.9,276.8-226.8,358.1-244v38.1c0,48.3,58.8,85.2,139.7,91.3V1713.1z M444,1507.3v-0.6v-72.8
			c35.4,16.4,74.1,24.6,113.1,23.8h10.6c39,0.7,77.7-7.4,113.1-23.8v73.5c0,20.2-46.2,49.4-118.4,49.4S444,1527.5,444,1507.3z
			 M583.7,1713.8v-115.4c80.9-5.5,139.7-42.6,139.7-91.3v-37.3c82,17,340.7,83.9,358.1,244H583.7L583.7,1713.8z"/>
	</g>
</g>
</svg>
