<svg height="512pt" viewBox="-24 0 511 512" width="512pt" xmlns="http://www.w3.org/2000/svg"><path d="m143.269531 270.769531h24.613281c0 21.714844 17.667969 39.382813 39.386719 39.382813 21.714844 0 39.382813-17.667969 39.382813-39.382813v-29.539062c0-5.429688 4.417968-9.847657 9.847656-9.847657s9.847656 4.417969 9.847656 9.847657v54.152343c0 8.160157 6.609375 14.769532 14.769532 14.769532 8.15625 0 14.765624-6.609375 14.765624-14.769532v-24.613281h24.617188c8.15625 0 14.769531-6.613281 14.769531-14.769531s-6.613281-14.769531-14.769531-14.769531h-24.617188c0-21.714844-17.667968-39.382813-39.382812-39.382813s-39.382812 17.667969-39.382812 39.382813v29.539062c0 5.429688-4.417969 9.847657-9.847657 9.847657-5.429687 0-9.847656-4.417969-9.847656-9.847657v-54.152343c0-8.160157-6.613281-14.769532-14.769531-14.769532s-14.769532 6.609375-14.769532 14.769532v24.613281h-24.613281c-8.15625 0-14.769531 6.613281-14.769531 14.769531s6.613281 14.769531 14.769531 14.769531zm0 0"/><path d="m330.347656 339.691406c-8.15625 0-14.769531 6.613282-14.769531 14.769532v36.726562c-15.289063 4.816406-27.382813 16.90625-32.199219 32.195312h-102.988281c-4.816406-15.289062-16.910156-27.378906-32.199219-32.195312v-36.726562c0-8.15625-6.613281-14.769532-14.769531-14.769532s-14.769531 6.613282-14.769531 14.769532v49.230468c0 8.15625 6.613281 14.769532 14.769531 14.769532 10.859375 0 19.695313 8.835937 19.695313 19.691406 0 8.15625 6.609374 14.769531 14.765624 14.769531h128c8.160157 0 14.769532-6.613281 14.769532-14.769531 0-10.855469 8.835937-19.691406 19.695312-19.691406 8.15625 0 14.769532-6.613282 14.769532-14.769532v-49.230468c0-8.15625-6.613282-14.769532-14.769532-14.769532zm0 0"/><path d="m396.808594 0h-329.847656c-36.648438 0-66.460938 29.8125-66.460938 66.460938 0 17.75 6.914062 34.4375 19.46875 46.992187 10.796875 10.796875 24.652344 17.40625 39.609375 19.050781v364.726563c0 8.15625 6.613281 14.769531 14.769531 14.769531h315.074219c8.15625 0 14.769531-6.613281 14.769531-14.769531v-364.726563c14.957032-1.644531 28.8125-8.253906 39.609375-19.050781 12.554688-12.554687 19.46875-29.242187 19.46875-46.992187 0-36.648438-29.816406-66.460938-66.460937-66.460938zm-22.15625 482.460938h-285.535156v-398.769532h29.535156v73.847656c0 8.15625 6.613281 14.769532 14.769531 14.769532s14.769531-6.613282 14.769531-14.769532v-73.847656h167.386719v73.847656c0 8.15625 6.613281 14.769532 14.769531 14.769532s14.769532-6.613282 14.769532-14.769532v-73.847656h29.535156zm48.261718-389.894532c-5.199218 5.199219-11.675781 8.660156-18.722656 10.082032v-33.726563c0-8.15625-6.613281-14.769531-14.769531-14.769531h-315.074219c-8.15625 0-14.769531 6.613281-14.769531 14.769531v33.726563c-7.046875-1.421876-13.523437-4.882813-18.722656-10.082032-6.976563-6.976562-10.816407-16.246094-10.816407-26.105468 0-20.359376 16.5625-36.921876 36.921876-36.921876h329.847656c20.359375 0 36.921875 16.5625 36.921875 36.921876 0 9.859374-3.839844 19.128906-10.816407 26.105468zm0 0"/></svg>